# xmcd CD database file
# Copyright (C) 1995-1998 Ti Kan
#
# Track frame offsets:
#	180
#	18039
#	34594
#	57185
#	75699
#	94481
#	122081
#	140293
#	159272
#	177421
#	194733
#	206886
#	225384
#	246904
#
# Disc length: 3462 seconds
#
# Revision: 1
# Processed by: cddbd v1.4b41PL3 Copyright (c) Steve Scherf et al.
# Submitted via: CDex 1.30Release
#
DISCID=b90d840e
DTITLE=The Coupe De Villes - Blues For You
DYEAR=1900
DGENRE=Blues
TTITLE0=Dream And Get Lucky
TTITLE1=Finally Found A Woman
TTITLE2=Quitin' Time
TTITLE3=2nd Rate
TTITLE4=Paid To Worry
TTITLE5=That's The Way The Night Went
TTITLE6=Love To Death
TTITLE7=I Got Blues For You
TTITLE8=Your Time Is Gonna Come
TTITLE9=Shelter The Storm
TTITLE10=Don't Give Up On Me
TTITLE11=Moment Of Joy
TTITLE12=Stay Away
TTITLE13=Sarah Lee
EXTD=ID3G:   0
EXTT0=
EXTT1=
EXTT2=
EXTT3=
EXTT4=
EXTT5=
EXTT6=
EXTT7=
EXTT8=
EXTT9=
EXTT10=
EXTT11=
EXTT12=
EXTT13=
PLAYORDER=
